<svg width="20" height="23" viewBox="0 0 20 23" fill="none" xmlns="http://www.w3.org/2000/svg">
<path d="M2.56697 9.42645C2.02953 9.42645 1.58114 9.21882 1.22181 8.80356C0.862474 8.38831 0.682419 7.87013 0.681641 7.24904V2.8403C0.681641 2.22011 0.861696 1.70238 1.22181 1.28712C1.58192 0.871864 2.03031 0.663788 2.56697 0.662888H6.38081C6.91747 0.662888 7.36586 0.870966 7.72597 1.28712C8.08608 1.70328 8.26575 2.22145 8.26497 2.84164V7.24904C8.26497 7.86923 8.08531 8.38741 7.72597 8.80356C7.36664 9.21972 6.91825 9.42735 6.38081 9.42645H2.56697ZM2.56697 22.2347C2.02953 22.2347 1.58114 22.0271 1.22181 21.6119C0.862474 21.1966 0.682419 20.678 0.681641 20.056V15.6499C0.681641 15.0288 0.861696 14.5107 1.22181 14.0954C1.58192 13.6802 2.03031 13.4721 2.56697 13.4712H6.38081C6.91747 13.4712 7.36586 13.6793 7.72597 14.0954C8.08608 14.5116 8.26575 15.0297 8.26497 15.6499V20.0573C8.26497 20.6775 8.08531 21.1957 7.72597 21.6119C7.36664 22.028 6.91825 22.2356 6.38081 22.2347H2.56697ZM13.6503 9.42645C13.1129 9.42645 12.6645 9.21882 12.3051 8.80356C11.9458 8.38831 11.7658 7.87013 11.765 7.24904V2.8403C11.765 2.22011 11.945 1.70238 12.3051 1.28712C12.6653 0.871864 13.1136 0.663788 13.6503 0.662888H17.4641C18.0008 0.662888 18.4492 0.870966 18.8093 1.28712C19.1694 1.70328 19.3491 2.22145 19.3483 2.84164V7.24904C19.3483 7.86923 19.1686 8.38741 18.8093 8.80356C18.45 9.21972 18.0012 9.42735 17.463 9.42645H13.6503ZM13.6503 22.2347C13.1129 22.2347 12.6645 22.0271 12.3051 21.6119C11.9458 21.1966 11.7658 20.678 11.765 20.056V15.6499C11.765 15.0288 11.945 14.5107 12.3051 14.0954C12.6653 13.6802 13.1136 13.4721 13.6503 13.4712H17.4641C18.0008 13.4712 18.4492 13.6793 18.8093 14.0954C19.1694 14.5116 19.3491 15.0297 19.3483 15.6499V20.0573C19.3483 20.6775 19.1686 21.1957 18.8093 21.6119C18.45 22.028 18.0012 22.2356 17.463 22.2347H13.6503Z" fill="#727272"/>
</svg>
